<svg xmlns="http://www.w3.org/2000/svg" xmlns:xlink="http://www.w3.org/1999/xlink" width="500" zoomAndPan="magnify" viewBox="0 0 375 187.499995" height="250" preserveAspectRatio="xMidYMid meet" version="1.0"><defs><clipPath id="9286b2bcda"><path d="M 75 134 L 311 134 L 311 178 L 75 178 Z M 75 134 " clip-rule="nonzero"/></clipPath><clipPath id="295fc6f1e8"><path d="M -34.746094 108.292969 L 87.867188 -105.945312 L 370.917969 56.050781 L 248.308594 270.289062 Z M -34.746094 108.292969 " clip-rule="nonzero"/></clipPath><clipPath id="bb978091e4"><path d="M -34.746094 108.292969 L 87.867188 -105.945312 L 370.917969 56.050781 L 248.308594 270.289062 Z M -34.746094 108.292969 " clip-rule="nonzero"/></clipPath><clipPath id="c52c39f5d5"><path d="M 43 63 L 338 63 L 338 132 L 43 132 Z M 43 63 " clip-rule="nonzero"/></clipPath><clipPath id="8027ae230a"><path d="M -34.746094 108.292969 L 87.867188 -105.945312 L 370.917969 56.050781 L 248.308594 270.289062 Z M -34.746094 108.292969 " clip-rule="nonzero"/></clipPath><clipPath id="251529e43c"><path d="M -34.746094 108.292969 L 87.867188 -105.945312 L 370.917969 56.050781 L 248.308594 270.289062 Z M -34.746094 108.292969 " clip-rule="nonzero"/></clipPath><clipPath id="05c2bea8b8"><path d="M 6 9 L 370 9 L 370 84 L 6 84 Z M 6 9 " clip-rule="nonzero"/></clipPath><clipPath id="c7aff259ce"><path d="M -34.746094 108.292969 L 87.867188 -105.945312 L 370.917969 56.050781 L 248.308594 270.289062 Z M -34.746094 108.292969 " clip-rule="nonzero"/></clipPath><clipPath id="cf04426fc8"><path d="M -34.746094 108.292969 L 87.867188 -105.945312 L 370.917969 56.050781 L 248.308594 270.289062 Z M -34.746094 108.292969 " clip-rule="nonzero"/></clipPath></defs><g clip-path="url(#9286b2bcda)"><g clip-path="url(#295fc6f1e8)"><g clip-path="url(#bb978091e4)"><path fill="#334075" d="M 309.9375 162.566406 C 309.773438 162.851562 309.570312 163.113281 309.320312 163.332031 C 308.917969 163.707031 299.152344 172.492188 280.628906 175.890625 C 269.867188 177.867188 258.328125 177.621094 246.335938 175.164062 C 231.484375 172.121094 215.871094 165.652344 199.953125 155.933594 C 172.570312 139.226562 144.277344 136.679688 115.894531 148.363281 C 94.523438 157.160156 81.0625 171.175781 80.925781 171.3125 C 79.714844 172.585938 77.699219 172.644531 76.417969 171.425781 C 75.144531 170.214844 75.085938 168.199219 76.289062 166.921875 C 76.867188 166.308594 90.660156 151.90625 113.226562 142.550781 C 126.539062 137.035156 140.125 134.453125 153.617188 134.882812 C 170.472656 135.410156 187.171875 140.660156 203.265625 150.476562 C 237.753906 171.519531 263.742188 172.492188 279.472656 169.597656 C 296.214844 166.515625 304.933594 158.691406 305.023438 158.609375 C 306.324219 157.414062 308.347656 157.507812 309.53125 158.804688 C 310.480469 159.875 310.609375 161.390625 309.9375 162.566406 Z M 309.9375 162.566406 " fill-opacity="1" fill-rule="nonzero"/></g></g></g><g clip-path="url(#c52c39f5d5)"><g clip-path="url(#8027ae230a)"><g clip-path="url(#251529e43c)"><path fill="#a0741b" d="M 337.472656 114.453125 C 337.257812 114.828125 336.953125 115.167969 336.582031 115.441406 C 335.894531 115.9375 319.546875 127.675781 294.496094 131.070312 C 279.761719 133.066406 265.082031 131.722656 250.863281 127.101562 C 233.1875 121.347656 216.222656 110.496094 200.433594 94.804688 C 173.371094 67.917969 139.707031 62.488281 100.394531 78.652344 C 70.675781 90.878906 48.839844 111.386719 48.613281 111.59375 C 47.339844 112.808594 45.3125 112.75 44.101562 111.476562 C 42.890625 110.207031 42.945312 108.175781 44.21875 106.964844 C 44.449219 106.746094 50.015625 101.5 59.433594 94.644531 C 68.113281 88.320312 81.851562 79.382812 97.945312 72.765625 C 116.195312 65.265625 133.699219 62.1875 149.984375 63.640625 C 170.457031 65.453125 188.929688 74.425781 204.914062 90.292969 C 232.152344 117.347656 261.898438 128.957031 293.339844 124.804688 C 305.621094 123.183594 315.6875 119.339844 321.960938 116.394531 C 328.804688 113.199219 332.769531 110.335938 332.816406 110.308594 C 334.238281 109.277344 336.234375 109.582031 337.273438 111.011719 C 338.042969 112.046875 338.074219 113.398438 337.472656 114.453125 Z M 337.472656 114.453125 " fill-opacity="1" fill-rule="nonzero"/></g></g></g><g clip-path="url(#05c2bea8b8)"><g clip-path="url(#c7aff259ce)"><g clip-path="url(#cf04426fc8)"><path fill="#334075" d="M 368.964844 55.824219 C 369.675781 56.863281 369.683594 58.171875 369.09375 59.199219 C 368.863281 59.605469 368.535156 59.96875 368.121094 60.242188 C 367.898438 60.398438 362.511719 64.039062 353.46875 68.429688 C 345.144531 72.476562 332 77.9375 316.65625 81.027344 C 299.304688 84.515625 282.761719 84.3125 267.460938 80.40625 C 248.308594 75.535156 231.148438 64.855469 216.453125 48.667969 C 170.734375 -1.679688 124.628906 16.78125 87.582031 31.617188 C 75.144531 36.597656 64.414062 40.898438 54.855469 42.1875 C 32.898438 45.15625 17.910156 42.519531 8.996094 39.640625 C 7.0625 39.019531 6.207031 36.777344 7.214844 35.011719 C 7.972656 33.691406 9.539062 33.09375 10.984375 33.558594 C 12.132812 33.929688 13.394531 34.289062 14.777344 34.652344 C 22.433594 36.59375 35.460938 38.378906 54.015625 35.863281 C 62.800781 34.679688 73.199219 30.511719 85.238281 25.695312 C 104.140625 18.125 125.5625 9.542969 148.753906 9.359375 C 161.558594 9.25 173.332031 11.691406 184.738281 16.804688 C 197.546875 22.542969 209.808594 31.824219 221.203125 44.367188 C 246.285156 71.992188 277.917969 82.230469 315.226562 74.792969 C 329.910156 71.867188 342.523438 66.636719 350.53125 62.757812 C 359.238281 58.539062 364.519531 54.976562 364.570312 54.9375 C 365.992188 53.984375 367.980469 54.371094 368.964844 55.824219 Z M 368.964844 55.824219 " fill-opacity="1" fill-rule="nonzero"/></g></g></g></svg>